<?xml version="1.0" encoding="UTF-8" standalone="no"?>
<svg
   xmlns:dc="http://purl.org/dc/elements/1.1/"
   xmlns:cc="http://creativecommons.org/ns#"
   xmlns:rdf="http://www.w3.org/1999/02/22-rdf-syntax-ns#"
   xmlns:svg="http://www.w3.org/2000/svg"
   xmlns="http://www.w3.org/2000/svg"
   xmlns:xlink="http://www.w3.org/1999/xlink"
   xmlns:sodipodi="http://sodipodi.sourceforge.net/DTD/sodipodi-0.dtd"
   xmlns:inkscape="http://www.inkscape.org/namespaces/inkscape"
   width="2000"
   height="1200"
   viewBox="0 0 2000 1200"
   version="1.1"
   id="svg23"
   sodipodi:docname="intro-bg-large-full.svg"
   inkscape:version="1.0.2 (e86c870879, 2021-01-15)">
  <metadata
     id="metadata27">
    <rdf:RDF>
      <cc:Work
         rdf:about="">
        <dc:format>image/svg+xml</dc:format>
        <dc:type
           rdf:resource="http://purl.org/dc/dcmitype/StillImage" />
        <dc:title>Group 4</dc:title>
      </cc:Work>
    </rdf:RDF>
  </metadata>
  <sodipodi:namedview
     pagecolor="#ffffff"
     bordercolor="#666666"
     borderopacity="1"
     objecttolerance="10"
     gridtolerance="10"
     guidetolerance="10"
     inkscape:pageopacity="0"
     inkscape:pageshadow="2"
     inkscape:window-width="1920"
     inkscape:window-height="1010"
     id="namedview25"
     showgrid="false"
     inkscape:zoom="0.17886659"
     inkscape:cx="1311.6558"
     inkscape:cy="-104.45917"
     inkscape:window-x="0"
     inkscape:window-y="0"
     inkscape:window-maximized="1"
     inkscape:current-layer="svg23" />
  <title
     id="title2">Group 4</title>
  <defs
     id="defs9">
    <linearGradient
       x1="0.041755386"
       y1="0.90952826"
       x2="1"
       y2="0.0032467446"
       id="linearGradient-1">
      <stop
         stop-color="#E63323"
         offset="0%"
         id="stop4" />
      <stop
         stop-color="#261B62"
         stop-opacity="0.345225087"
         offset="100%"
         id="stop6" />
    </linearGradient>
    <linearGradient
       inkscape:collect="always"
       xlink:href="#linearGradient-1"
       id="linearGradient852"
       x1="692.07581"
       y1="1275.9141"
       x2="1280.4373"
       y2="719.45801"
       gradientTransform="scale(1.00163,0.99837267)"
       gradientUnits="userSpaceOnUse" />
    <linearGradient
       inkscape:collect="always"
       xlink:href="#linearGradient-1"
       id="linearGradient854"
       x1="1259.1516"
       y1="1228.8375"
       x2="1847.5129"
       y2="672.38141"
       gradientTransform="scale(1.00163,0.9983727)"
       gradientUnits="userSpaceOnUse" />
    <linearGradient
       inkscape:collect="always"
       xlink:href="#linearGradient-1"
       id="linearGradient856"
       x1="1193.2589"
       y1="1809.783"
       x2="1781.6202"
       y2="1253.3269"
       gradientTransform="scale(1.00163,0.99837266)"
       gradientUnits="userSpaceOnUse" />
    <linearGradient
       inkscape:collect="always"
       xlink:href="#linearGradient-1"
       id="linearGradient858"
       x1="1873.1508"
       y1="1133.6826"
       x2="2461.5122"
       y2="577.22656"
       gradientTransform="scale(1.00163,0.9983727)"
       gradientUnits="userSpaceOnUse" />
    <linearGradient
       inkscape:collect="always"
       xlink:href="#linearGradient-1"
       id="linearGradient860"
       x1="1768.3217"
       y1="1748.6835"
       x2="2356.6829"
       y2="1192.2274"
       gradientTransform="scale(1.00163,0.99837266)"
       gradientUnits="userSpaceOnUse" />
    <linearGradient
       inkscape:collect="always"
       xlink:href="#linearGradient-1"
       id="linearGradient862"
       x1="606.21576"
       y1="1888.9117"
       x2="1194.5771"
       y2="1332.4557"
       gradientTransform="scale(1.00163,0.99837263)"
       gradientUnits="userSpaceOnUse" />
    <linearGradient
       inkscape:collect="always"
       xlink:href="#linearGradient-1"
       id="linearGradient864"
       x1="2329.407"
       y1="1707.6167"
       x2="2917.7683"
       y2="1151.1606"
       gradientTransform="scale(1.00163,0.99837266)"
       gradientUnits="userSpaceOnUse" />
    <linearGradient
       inkscape:collect="always"
       xlink:href="#linearGradient-1"
       id="linearGradient866"
       x1="519.07288"
       y1="2378.5923"
       x2="2233.2722"
       y2="757.34961"
       gradientTransform="scale(1.3086287,0.7641587)"
       gradientUnits="userSpaceOnUse" />
    <linearGradient
       inkscape:collect="always"
       xlink:href="#linearGradient-1"
       id="linearGradient868"
       x1="37.670517"
       y1="1191.6663"
       x2="1751.8699"
       y2="-429.57663"
       gradientTransform="scale(1.3086287,0.7641587)"
       gradientUnits="userSpaceOnUse" />
    <linearGradient
       inkscape:collect="always"
       xlink:href="#linearGradient-1"
       id="linearGradient870"
       x1="38.417076"
       y1="1191.6663"
       x2="1752.6165"
       y2="-429.57663"
       gradientTransform="scale(1.3086287,0.7641587)"
       gradientUnits="userSpaceOnUse" />
    <linearGradient
       inkscape:collect="always"
       xlink:href="#linearGradient-1"
       id="linearGradient872"
       x1="37.652916"
       y1="1191.6663"
       x2="1751.8523"
       y2="-429.57663"
       gradientTransform="scale(1.3086287,0.7641587)"
       gradientUnits="userSpaceOnUse" />
  </defs>
  <g
     id="01"
     stroke="none"
     stroke-width="1"
     fill="none"
     fill-rule="evenodd"
     transform="matrix(0.84458753,0,0,0.84458753,83.602026,303.72125)">
    <g
       id="egd-homepage"
       transform="translate(-37)"
       fill="url(#linearGradient-1)"
       style="fill:url(#linearGradient872)">
      <g
         id="claim"
         transform="translate(-1)"
         style="fill:url(#linearGradient870)">
        <g
           id="Group-4"
           transform="translate(0.976966)"
           style="fill:url(#linearGradient868)">
          <g
             id="Group"
             transform="translate(-629.97697,-907)"
             style="fill:url(#linearGradient866)">
            <path
               d="m 1253.6974,745.03016 c 38.4359,38.31092 38.4359,100.07498 0,138.39153 L 835.18867,1300.5638 c -38.43591,38.3109 -100.40149,38.3109 -138.8374,0 -38.43591,-38.3109 -38.43591,-100.0806 0,-138.3915 L 1114.8544,745.03016 c 38.4359,-38.31091 100.4071,-38.31091 138.843,0"
               id="Fill-106"
               style="fill:url(#linearGradient852)" />
            <path
               d="m 1821.6974,698.03016 c 38.4359,38.31092 38.4359,100.07498 0,138.39153 l -418.5087,417.14211 c -38.4359,38.3109 -100.4015,38.3109 -138.8374,0 -38.4359,-38.3109 -38.4359,-100.0806 0,-138.3915 l 418.5031,-417.14214 c 38.4359,-38.31091 100.4071,-38.31091 138.843,0"
               id="Fill-106-Copy-3"
               transform="rotate(180,1543.0243,975.79698)"
               style="fill:url(#linearGradient854)" />
            <path
               d="m 1755.6974,1278.0302 c 38.4359,38.3109 38.4359,100.0749 0,138.3915 l -418.5087,417.1421 c -38.4359,38.3109 -100.4015,38.3109 -138.8374,0 -38.4359,-38.3109 -38.4359,-100.0806 0,-138.3915 l 418.5031,-417.1421 c 38.4359,-38.3109 100.4071,-38.3109 138.843,0"
               id="Fill-106-Copy-6"
               transform="rotate(180,1477.0243,1555.797)"
               style="fill:url(#linearGradient856)" />
            <path
               d="m 2436.6974,603.03016 c 38.4359,38.31092 38.4359,100.07498 0,138.39153 l -418.5087,417.14211 c -38.4359,38.3109 -100.4015,38.3109 -138.8374,0 -38.4359,-38.3109 -38.4359,-100.0806 0,-138.3915 l 418.5031,-417.14214 c 38.4359,-38.31091 100.4071,-38.31091 138.843,0"
               id="Fill-106-Copy-7"
               style="fill:url(#linearGradient858)" />
            <path
               d="m 2331.6974,1217.0302 c 38.4359,38.3109 38.4359,100.0749 0,138.3915 l -418.5087,417.1421 c -38.4359,38.3109 -100.4015,38.3109 -138.8374,0 -38.4359,-38.3109 -38.4359,-100.0806 0,-138.3915 l 418.5031,-417.1421 c 38.4359,-38.3109 100.4071,-38.3109 138.843,0"
               id="Fill-106-Copy-8"
               style="fill:url(#linearGradient860)" />
            <path
               d="m 1167.6974,1357.0302 c 38.4359,38.3109 38.4359,100.0749 0,138.3915 l -418.50873,417.1421 c -38.43591,38.3109 -100.40149,38.3109 -138.8374,0 -38.43591,-38.3109 -38.43591,-100.0806 0,-138.3915 l 418.50313,-417.1421 c 38.4359,-38.3109 100.4071,-38.3109 138.843,0"
               id="Fill-106-Copy-5"
               style="fill:url(#linearGradient862)" />
            <path
               d="m 2893.6974,1176.0302 c 38.4359,38.3109 38.4359,100.0749 0,138.3915 l -418.5087,417.1421 c -38.4359,38.3109 -100.4015,38.3109 -138.8374,0 -38.4359,-38.3109 -38.4359,-100.0806 0,-138.3915 l 418.5031,-417.1421 c 38.4359,-38.3109 100.4071,-38.3109 138.843,0"
               id="Fill-106-Copy-9"
               transform="rotate(180,2615.0243,1453.797)"
               style="fill:url(#linearGradient864)" />
          </g>
        </g>
      </g>
    </g>
  </g>
</svg>
