<?xml version="1.0" encoding="UTF-8" standalone="no"?>
<svg
   xmlns:dc="http://purl.org/dc/elements/1.1/"
   xmlns:cc="http://creativecommons.org/ns#"
   xmlns:rdf="http://www.w3.org/1999/02/22-rdf-syntax-ns#"
   xmlns:svg="http://www.w3.org/2000/svg"
   xmlns="http://www.w3.org/2000/svg"
   version="1.1"
   id="svg2"
   xml:space="preserve"
   width="377.95334"
   height="140"
   viewBox="0 0 377.95334 140"><metadata
     id="metadata8"><rdf:RDF><cc:Work
         rdf:about=""><dc:format>image/svg+xml</dc:format><dc:type
           rdf:resource="http://purl.org/dc/dcmitype/StillImage" /><dc:title></dc:title></cc:Work></rdf:RDF></metadata><defs
     id="defs6"><clipPath
       clipPathUnits="userSpaceOnUse"
       id="clipPath18"><path
         d="M 0,129.328 H 283.465 V 0 H 0 Z"
         id="path16" /></clipPath><linearGradient
       x1="0.041755386"
       y1="0.90952826"
       x2="1"
       y2="0.0032467446"
       id="linearGradient-1"><stop
         stop-color="#E63323"
         offset="0%"
         id="stop4" /><stop
         stop-color="#261B62"
         stop-opacity="0.345225087"
         offset="100%"
         id="stop6" /></linearGradient></defs><g
     id="g10"
     transform="matrix(1.3333333,0,0,-1.3333333,0,172.43733)"><g
       id="g884"
       transform="translate(0,20.368383)"><g
         id="g873"
         transform="matrix(1.1486119,0,0,1.1486119,-10.285973,-6.2674925)"><g
           id="g12"
           transform="matrix(0.36565026,0,0,0.36565026,16.041043,12.601178)"><g
             id="g14"
             clip-path="url(#clipPath18)"><g
               id="g20"
               transform="translate(167.541,64.2219)"><path
                 d="m 0,0 c 0,-7.867 6.342,-14.208 14.209,-14.208 7.867,0 14.209,6.341 14.209,14.208 0,7.867 -6.342,14.209 -14.209,14.209 C 6.342,14.209 0,7.867 0,0 m -58.363,5.78 c 0,8.028 6.583,14.611 14.611,14.611 8.028,0 14.611,-6.583 14.611,-14.611 0,-8.028 -6.583,-14.61 -14.611,-14.61 -8.028,0 -14.611,6.582 -14.611,14.61 m -21.113,0 c 0,-19.908 17.1,-35.644 34.761,-35.644 4.494,0 10.194,1.125 14.611,3.533 v -3.371 c 0,-10.757 -7.787,-16.378 -15.735,-16.378 -5.86,0 -11.801,3.131 -14.611,9.715 l -18.464,-4.257 c 4.817,-12.522 16.779,-23.6 34.038,-23.6 22.238,0 36.046,15.333 36.046,42.628 V 34.52 h -13.888 c -5.701,4.254 -13.167,6.984 -21.034,6.984 -19.749,0 -35.724,-15.975 -35.724,-35.724 M 77.308,-17.581 c -9.873,0 -18.224,8.349 -18.224,18.384 0,10.035 8.351,18.384 18.224,18.384 10.435,0 17.901,-8.028 17.901,-18.143 0,-9.874 -6.822,-18.625 -17.901,-18.625 m 38.615,82.687 H 93.042 V 37.168 c -5.459,2.972 -11.159,4.336 -16.777,4.336 -20.792,0 -39.578,-15.975 -39.578,-40.701 0,-23.681 17.822,-40.461 41.343,-40.461 6.904,0 16.217,2.087 23.682,7.708 h 14.211 z M -144.26,10.357 c 2.97,8.669 10.676,13.164 18.062,13.164 7.144,0 14.049,-4.253 16.056,-13.164 z m 56.194,-15.494 c 0.241,1.845 0.321,3.772 0.321,5.619 0,22.077 -14.047,41.022 -39.335,41.022 -22.238,0 -40.461,-17.179 -40.461,-39.738 0,-21.514 15.814,-41.424 41.585,-41.424 17.098,0 30.425,10.197 36.205,21.355 l -18.706,4.175 c -4.415,-4.577 -10.516,-6.825 -16.456,-6.825 -9.151,0 -17.902,5.378 -19.669,15.816 z"
                 style="fill:#e63222;fill-opacity:1;fill-rule:nonzero;stroke:none"
                 id="path22" /></g></g></g><text
           xml:space="preserve"
           style="font-style:normal;font-weight:normal;font-size:33.3816px;line-height:1.25;font-family:sans-serif;fill:#000000;fill-opacity:1;stroke:none;stroke-width:0.83454"
           x="13.846958"
           y="-64.984657"
           id="text838"
           transform="scale(1,-1)"><tspan
             id="tspan836"
             x="13.846958"
             y="-64.984657"
             style="font-style:normal;font-variant:normal;font-weight:bold;font-stretch:normal;font-size:33.3816px;font-family:'Source Code Pro';-inkscape-font-specification:'Source Code Pro, Bold';font-variant-ligatures:normal;font-variant-caps:normal;font-variant-numeric:normal;font-variant-east-asian:normal;opacity:0.999;fill:#261b62;fill-opacity:1;stroke-width:0.83454">Hackaference</tspan></text><text
           xml:space="preserve"
           style="font-style:normal;font-weight:normal;font-size:53.3412px;line-height:1.25;font-family:sans-serif;fill:#000000;fill-opacity:1;stroke:none;stroke-width:1.33353"
           x="128.01689"
           y="-24.352478"
           id="text842"
           transform="scale(1,-1)"><tspan
             id="tspan840"
             x="128.01689"
             y="-24.352478"
             style="font-style:normal;font-variant:normal;font-weight:bold;font-stretch:normal;font-size:53.3412px;font-family:'Source Code Pro';-inkscape-font-specification:'Source Code Pro, Bold';font-variant-ligatures:normal;font-variant-caps:normal;font-variant-numeric:normal;font-variant-east-asian:normal;opacity:0.999;fill:#261b62;fill-opacity:1;stroke-width:1.33353">2022</tspan></text></g></g></g></svg>
