<?xml version="1.0" encoding="UTF-8"?>
<svg width="1694px" height="543px" viewBox="0 0 1694 543" version="1.1" xmlns="http://www.w3.org/2000/svg" xmlns:xlink="http://www.w3.org/1999/xlink">
    <title>Group 4</title>
    <defs>
        <linearGradient x1="4.17553855%" y1="90.9528309%" x2="100%" y2="0.324674466%" id="linearGradient-1">
            <stop stop-color="#E63323" offset="0%"></stop>
            <stop stop-color="#261B62" stop-opacity="0.345225087" offset="100%"></stop>
        </linearGradient>
    </defs>
    <g id="01" stroke="none" stroke-width="1" fill="none" fill-rule="evenodd">
        <g id="egd-homepage" transform="translate(-37.000000, 0.000000)" fill="url(#linearGradient-1)">
            <g id="claim" transform="translate(-1.000000, 0.000000)">
                <g id="Group-4" transform="translate(0.976966, 0.000000)">
                    <g id="Group" transform="translate(-629.976966, -907.000000)">
                        <path d="M1253.6974,745.030165 C1292.13331,783.341084 1292.13331,845.105144 1253.6974,883.421685 L835.188671,1300.56379 C796.752758,1338.87471 734.787184,1338.87471 696.35127,1300.56379 C657.915356,1262.25287 657.915356,1200.48319 696.35127,1162.17227 L1114.85436,745.030165 C1153.29027,706.719247 1215.26149,706.719247 1253.6974,745.030165" id="Fill-106"></path>
                        <path d="M1821.6974,698.030165 C1860.13331,736.341084 1860.13331,798.105144 1821.6974,836.421685 L1403.18867,1253.56379 C1364.75276,1291.87471 1302.78718,1291.87471 1264.35127,1253.56379 C1225.91536,1215.25287 1225.91536,1153.48319 1264.35127,1115.17227 L1682.85436,698.030165 C1721.29027,659.719247 1783.26149,659.719247 1821.6974,698.030165" id="Fill-106-Copy-3" transform="translate(1543.024335, 975.796976) scale(-1, -1) translate(-1543.024335, -975.796976) "></path>
                        <path d="M1755.6974,1278.03017 C1794.13331,1316.34108 1794.13331,1378.10514 1755.6974,1416.42168 L1337.18867,1833.56379 C1298.75276,1871.87471 1236.78718,1871.87471 1198.35127,1833.56379 C1159.91536,1795.25287 1159.91536,1733.48319 1198.35127,1695.17227 L1616.85436,1278.03017 C1655.29027,1239.71925 1717.26149,1239.71925 1755.6974,1278.03017" id="Fill-106-Copy-6" transform="translate(1477.024335, 1555.796976) scale(-1, -1) translate(-1477.024335, -1555.796976) "></path>
                        <path d="M2436.6974,603.030165 C2475.13331,641.341084 2475.13331,703.105144 2436.6974,741.421685 L2018.18867,1158.56379 C1979.75276,1196.87471 1917.78718,1196.87471 1879.35127,1158.56379 C1840.91536,1120.25287 1840.91536,1058.48319 1879.35127,1020.17227 L2297.85436,603.030165 C2336.29027,564.719247 2398.26149,564.719247 2436.6974,603.030165" id="Fill-106-Copy-7"></path>
                        <path d="M2331.6974,1217.03017 C2370.13331,1255.34108 2370.13331,1317.10514 2331.6974,1355.42168 L1913.18867,1772.56379 C1874.75276,1810.87471 1812.78718,1810.87471 1774.35127,1772.56379 C1735.91536,1734.25287 1735.91536,1672.48319 1774.35127,1634.17227 L2192.85436,1217.03017 C2231.29027,1178.71925 2293.26149,1178.71925 2331.6974,1217.03017" id="Fill-106-Copy-8"></path>
                        <path d="M1167.6974,1357.03017 C1206.13331,1395.34108 1206.13331,1457.10514 1167.6974,1495.42168 L749.188671,1912.56379 C710.752758,1950.87471 648.787184,1950.87471 610.35127,1912.56379 C571.915356,1874.25287 571.915356,1812.48319 610.35127,1774.17227 L1028.85436,1357.03017 C1067.29027,1318.71925 1129.26149,1318.71925 1167.6974,1357.03017" id="Fill-106-Copy-5"></path>
                        <path d="M2893.6974,1176.03017 C2932.13331,1214.34108 2932.13331,1276.10514 2893.6974,1314.42168 L2475.18867,1731.56379 C2436.75276,1769.87471 2374.78718,1769.87471 2336.35127,1731.56379 C2297.91536,1693.25287 2297.91536,1631.48319 2336.35127,1593.17227 L2754.85436,1176.03017 C2793.29027,1137.71925 2855.26149,1137.71925 2893.6974,1176.03017" id="Fill-106-Copy-9" transform="translate(2615.024335, 1453.796976) scale(-1, -1) translate(-2615.024335, -1453.796976) "></path>
                    </g>
                </g>
            </g>
        </g>
    </g>
</svg>
