<?xml version="1.0" standalone="no"?>
<!DOCTYPE svg PUBLIC "-//W3C//DTD SVG 20010904//EN"
 "http://www.w3.org/TR/2001/REC-SVG-20010904/DTD/svg10.dtd">
<svg version="1.0" xmlns="http://www.w3.org/2000/svg"
 width="270.000000pt" height="270.000000pt" viewBox="0 0 270.000000 270.000000"
 preserveAspectRatio="xMidYMid meet">
<metadata>
Created by potrace 1.14, written by Peter Selinger 2001-2017
</metadata>
<g transform="translate(0.000000,270.000000) scale(0.100000,-0.100000)"
fill="#000000" stroke="none">
<path d="M1212 2573 c-70 -59 -152 -128 -183 -155 l-56 -48 -245 0 c-184 0
-248 -3 -256 -12 -10 -12 -24 -80 -73 -360 l-22 -128 -171 -142 c-209 -175
-209 -176 -201 -196 3 -9 58 -106 122 -216 l115 -200 -16 -96 c-9 -52 -27
-160 -41 -239 -14 -79 -24 -148 -23 -153 3 -9 52 -28 350 -137 l117 -43 107
-186 c139 -242 141 -244 167 -236 12 3 113 39 225 80 112 41 212 74 222 74 10
0 110 -33 222 -74 112 -41 213 -77 225 -80 26 -8 28 -6 167 236 59 102 112
188 119 191 7 2 109 39 227 82 118 43 219 82 225 87 5 5 5 29 -2 66 -7 31 -26
140 -44 242 l-32 185 116 200 c64 110 119 208 122 217 8 21 6 23 -201 196
l-171 142 -22 128 c-49 280 -63 348 -73 360 -8 9 -72 12 -256 12 l-245 0 -56
48 c-160 138 -312 262 -321 262 -6 0 -67 -48 -138 -107z"/>
</g>
</svg>
